<?xml version="1.0" encoding="utf-8"?>
<!-- Generator: Adobe Illustrator 15.0.0, SVG Export Plug-In . SVG Version: 6.00 Build 0)  -->
<!DOCTYPE svg PUBLIC "-//W3C//DTD SVG 1.1//EN" "http://www.w3.org/Graphics/SVG/1.1/DTD/svg11.dtd">
<svg version="1.1" id="Layer_1" xmlns="http://www.w3.org/2000/svg" xmlns:xlink="http://www.w3.org/1999/xlink" x="0px" y="0px"
	 width="44px" height="10px" viewBox="-5.5 0 44 10" enable-background="new -5.5 0 44 10" xml:space="preserve">
<path fill="#F86021" d="M15.873,4.333L15.873,4.333L13.23,6.244l1.018,3.109c0.018,0.049,0.025,0.102,0.025,0.154
	c0,0.27-0.221,0.491-0.492,0.491c-0.107,0-0.207-0.034-0.289-0.095l0,0L10.829,7.98L8.166,9.906l0,0C8.085,9.965,7.986,10,7.879,10
	c-0.272,0-0.492-0.221-0.492-0.492c0-0.053,0.009-0.105,0.025-0.152l1.018-3.11L5.788,4.334l0,0C5.664,4.245,5.584,4.1,5.584,3.936
	c0-0.271,0.22-0.492,0.492-0.492h3.271l1.013-3.095C10.421,0.146,10.608,0,10.829,0c0.221,0,0.408,0.146,0.47,0.347l1.013,3.095
	h3.271c0.271,0,0.492,0.221,0.492,0.492C16.076,4.099,15.996,4.244,15.873,4.333"/>
<path fill="#D2D3D2" d="M26.797,4.333L26.797,4.333l-2.643,1.911l1.018,3.109c0.018,0.049,0.025,0.102,0.025,0.154
	c0,0.27-0.221,0.491-0.492,0.491c-0.107,0-0.207-0.034-0.289-0.095l0,0L21.754,7.98l-2.662,1.926l0,0
	C19.01,9.965,18.91,10,18.803,10c-0.27,0-0.49-0.221-0.49-0.492c0-0.053,0.01-0.105,0.023-0.152l1.02-3.11L16.71,4.334l0,0
	c-0.122-0.089-0.202-0.234-0.202-0.398c0-0.271,0.222-0.492,0.491-0.492h3.272l1.014-3.095C21.346,0.146,21.533,0,21.754,0
	c0.223,0,0.408,0.146,0.471,0.347l1.014,3.095h3.27C26.779,3.442,27,3.663,27,3.934C27,4.099,26.92,4.244,26.797,4.333"/>
<path fill="#FFFFFF" d="M4.789,4.333L4.789,4.333L2.147,6.244l1.018,3.109C3.18,9.402,3.189,9.455,3.189,9.508
	C3.189,9.779,2.969,10,2.697,10C2.589,10,2.49,9.965,2.408,9.906l0,0L-0.254,7.98l-2.662,1.926l0,0C-2.998,9.965-3.097,10-3.204,10
	c-0.272,0-0.492-0.221-0.492-0.492c0-0.053,0.009-0.105,0.025-0.152l1.019-3.11l-2.644-1.912l0,0C-5.42,4.244-5.5,4.099-5.5,3.935
	c0-0.271,0.22-0.492,0.492-0.492h3.271l1.013-3.095C-0.662,0.146-0.475,0-0.254,0c0.221,0,0.408,0.146,0.47,0.347l1.013,3.095H4.5
	c0.271,0,0.492,0.221,0.492,0.492C4.992,4.099,4.912,4.244,4.789,4.333"/>
<path fill="#0099FF" d="M37.672,4.333L37.672,4.333l-2.643,1.911l1.018,3.109c0.018,0.049,0.025,0.102,0.025,0.154
	c0,0.27-0.221,0.491-0.492,0.491c-0.107,0-0.207-0.034-0.289-0.095l0,0L32.628,7.98l-2.663,1.926l0,0
	C29.884,9.965,29.785,10,29.678,10c-0.271,0-0.492-0.221-0.492-0.492c0-0.053,0.01-0.105,0.025-0.152l1.018-3.11l-2.642-1.911l0,0
	c-0.124-0.089-0.204-0.234-0.204-0.398c0-0.271,0.221-0.492,0.492-0.492h3.271l1.013-3.095C32.221,0.146,32.407,0,32.628,0
	c0.222,0,0.408,0.146,0.47,0.347l1.014,3.095h3.271c0.271,0,0.492,0.221,0.492,0.492C37.875,4.1,37.795,4.244,37.672,4.333"/>
</svg>
